<svg width="26" height="30" viewBox="0 0 26 30" fill="none" xmlns="http://www.w3.org/2000/svg">
<path d="M25.7001 25.2584L23.9209 7.06283C23.8828 6.65887 23.5079 6.35302 23.0695 6.35302H19.4095C19.3587 3.31754 16.6264 0.864929 13.2715 0.864929C9.91653 0.864929 7.18427 3.31754 7.13344 6.35302H3.47349C3.02871 6.35302 2.66017 6.65887 2.62204 7.06283L0.842902 25.2584C0.842902 25.2814 0.836548 25.3045 0.836548 25.3276C0.836548 27.3993 2.92704 29.0844 5.50044 29.0844H21.0425C23.6159 29.0844 25.7064 27.3993 25.7064 25.3276C25.7064 25.3045 25.7064 25.2814 25.7001 25.2584ZM13.2715 2.42306C15.6797 2.42306 17.6431 4.1774 17.6939 6.35302H8.84904C8.89988 4.1774 10.8633 2.42306 13.2715 2.42306ZM21.0425 27.5263H5.50044C3.88651 27.5263 2.57757 26.5568 2.55215 25.3622L4.25504 7.91692H7.12709V10.283C7.12709 10.7158 7.50833 11.062 7.98489 11.062C8.46144 11.062 8.84269 10.7158 8.84269 10.283V7.91692H17.6939V10.283C17.6939 10.7158 18.0752 11.062 18.5517 11.062C19.0283 11.062 19.4095 10.7158 19.4095 10.283V7.91692H22.2816L23.9908 25.3622C23.9654 26.5568 22.6501 27.5263 21.0425 27.5263Z" fill="black"/>
</svg>
