<svg width="12" height="25" viewBox="0 0 12 25" fill="none" xmlns="http://www.w3.org/2000/svg">
<path d="M3.955 1.28763C4.95941 0.359578 6.3813 0.0441387 7.72885 0.00761012C9.15113 -0.00456607 10.5734 0.00152202 11.9953 0.00152202C12.0016 1.46343 12.0016 2.91924 11.9953 4.38115C11.0785 4.38115 10.1551 4.38115 9.23838 4.38115C8.65812 4.34462 8.05947 4.77535 7.95344 5.33964C7.94092 6.3164 7.94718 7.29278 7.94718 8.26953C9.29434 8.27562 10.6419 8.26954 11.989 8.27562C11.8893 9.68882 11.7085 11.0963 11.4964 12.4916C10.305 12.5038 9.11357 12.4916 7.92214 12.4977C7.90962 16.665 7.9284 20.8262 7.91588 24.9939C6.14419 25 4.37915 24.9878 2.60745 25C2.57615 20.8327 2.60745 16.6654 2.58867 12.4977C1.72787 12.4916 0.860804 12.5038 0 12.4916C0.00626039 11.0902 0 9.6892 0 8.29389C0.860804 8.28171 1.72787 8.29389 2.58867 8.2878C2.61371 6.92901 2.56363 5.56414 2.61371 4.20535C2.70762 3.11977 3.1255 2.0338 3.955 1.28763Z" fill="black"/>
</svg>
