<svg width="9" height="20" viewBox="0 0 9 20" fill="none" xmlns="http://www.w3.org/2000/svg">
<path d="M2.96625 1.03011C3.71955 0.287663 4.78597 0.0353109 5.79664 0.00608809C6.86335 -0.00365286 7.93006 0.00121762 8.99648 0.00121762C9.00117 1.17074 9.00117 2.33539 8.99648 3.50492C8.30891 3.50492 7.61636 3.50492 6.92879 3.50492C6.49359 3.47569 6.04461 3.82028 5.96508 4.27171C5.95569 5.05312 5.96038 5.83422 5.96038 6.61563C6.97075 6.6205 7.98142 6.61563 8.99178 6.6205C8.91695 7.75106 8.78138 8.87705 8.62232 9.9933C7.72875 10.003 6.83518 9.9933 5.9416 9.99817C5.93221 13.332 5.9463 16.661 5.93691 19.9951C4.60814 20 3.28436 19.9903 1.95559 20C1.93211 16.6662 1.95559 13.3323 1.9415 9.99817C1.2959 9.9933 0.645603 10.003 0 9.9933C0.0046953 8.87218 0 7.75136 0 6.63511C0.645603 6.62537 1.2959 6.63511 1.9415 6.63024C1.96029 5.54321 1.92272 4.45131 1.96029 3.36428C2.03072 2.49581 2.34413 1.62704 2.96625 1.03011Z" fill="white"/>
</svg>
