<svg width="24" height="21" viewBox="0 0 24 21" fill="none" xmlns="http://www.w3.org/2000/svg">
<path d="M22.0373 1.9741C20.7959 0.71767 19.0565 0.00278175 17.234 0.00013156C15.4101 0.0021192 13.6688 0.716629 12.4255 1.97329L12.0018 2.39491L11.578 1.97329C9.11101 -0.526925 4.95858 -0.670508 2.30343 1.65252C2.18578 1.7555 2.07215 1.86246 1.96278 1.97329C-0.654261 4.63134 -0.654261 8.73922 1.96278 11.3973L11.3791 20.7478C11.7048 21.0716 12.2477 21.0855 12.5916 20.7787C12.6029 20.7687 12.6139 20.7584 12.6245 20.7478L22.0374 11.3973C24.6542 8.73951 24.6542 4.63186 22.0373 1.9741ZM20.7962 10.2851H20.7953L12.0018 19.0185L3.20738 10.2851C1.20811 8.2541 1.20811 5.11566 3.20738 3.08467C5.02296 1.23171 8.09007 1.11553 10.0579 2.82514C10.1534 2.90815 10.2453 2.9947 10.3335 3.08467L11.3791 4.12335C11.7236 4.44573 12.2799 4.44573 12.6245 4.12335L13.6701 3.08547C15.4857 1.23252 18.5528 1.11633 20.5206 2.82594C20.6161 2.90895 20.708 2.99551 20.7962 3.08547C22.8129 5.11968 22.8276 8.26385 20.7962 10.2851Z" fill="black"/>
</svg>
