<svg width="19" height="19" viewBox="0 0 19 19" fill="none" xmlns="http://www.w3.org/2000/svg">
<path d="M9.51569 4.57715C6.78125 4.57715 4.55615 6.76978 4.55615 9.46514C4.55615 12.1602 6.78094 14.3528 9.51569 14.3528C12.2501 14.3528 14.4752 12.1602 14.4752 9.46514C14.4752 6.76978 12.2501 4.57715 9.51569 4.57715ZM9.51569 12.5533C7.77694 12.5533 6.36264 11.1677 6.36264 9.46514C6.36264 7.76223 7.77694 6.37694 9.51569 6.37694C11.2541 6.37694 12.6687 7.76223 12.6687 9.46514C12.6687 11.168 11.2544 12.5533 9.51569 12.5533Z" fill="white"/>
<path d="M13.5311 0H5.46888C2.45351 0 0 2.44368 0 5.44768V13.5523C0 16.556 2.4532 19 5.46888 19H13.5311C16.5468 19 19 16.556 19 13.5523V5.44768C19 2.44399 16.5468 0 13.5311 0ZM17.1901 13.5523C17.1901 15.562 15.5486 17.1971 13.5311 17.1971H5.46888C3.45138 17.1971 1.80991 15.562 1.80991 13.5523V5.44768C1.80991 3.438 3.45138 1.80289 5.46888 1.80289H13.5311C15.5486 1.80289 17.1901 3.438 17.1901 5.44768V13.5523Z" fill="white"/>
<path d="M14.5635 5.53966C15.208 5.53966 15.7304 5.01923 15.7304 4.37725C15.7304 3.73527 15.208 3.21484 14.5635 3.21484C13.919 3.21484 13.3965 3.73527 13.3965 4.37725C13.3965 5.01923 13.919 5.53966 14.5635 5.53966Z" fill="white"/>
</svg>
