<svg width="21" height="21" viewBox="0 0 21 21" fill="none" xmlns="http://www.w3.org/2000/svg">
<path d="M21 14.2119C21 11.151 18.9375 8.47662 16.0291 7.67072C15.8463 3.41006 12.3234 0 8.01855 0C3.59704 0 0 3.59704 0 8.01855C0 9.45955 0.38356 10.8626 1.11191 12.0943L0.02948 16.0075L3.94279 14.9252C5.07504 15.5947 6.35229 15.9719 7.67056 16.0288C8.4763 18.9374 11.1508 21 14.2119 21C15.4337 21 16.6219 20.6746 17.6659 20.0563L20.9704 20.9704L20.0563 17.6659C20.6746 16.6219 21 15.4337 21 14.2119ZM4.13697 13.5948L1.79427 14.2428L2.44235 11.9001L2.29463 11.6691C1.59849 10.5799 1.23047 9.3176 1.23047 8.01855C1.23047 4.27556 4.27556 1.23047 8.01855 1.23047C11.7616 1.23047 14.8066 4.27556 14.8066 8.01855C14.8066 11.7616 11.7616 14.8066 8.01855 14.8066C6.71951 14.8066 5.45732 14.4386 4.368 13.7425L4.13697 13.5948ZM19.2057 19.2057L17.4674 18.7248L17.2352 18.8758C16.3353 19.4605 15.2897 19.7695 14.2119 19.7695C11.8061 19.7695 9.69202 18.214 8.94301 15.9834C12.627 15.5587 15.5587 12.627 15.9836 8.94285C18.214 9.69202 19.7695 11.8061 19.7695 14.2119C19.7695 15.2897 19.4605 16.3353 18.8758 17.2352L18.7248 17.4674L19.2057 19.2057Z" fill="black"/>
<path d="M7.40332 11.1152H8.63379V12.3457H7.40332V11.1152Z" fill="black"/>
<path d="M9.24902 6.15234C9.24902 6.50178 9.10675 6.8243 8.84848 7.06062L7.40332 8.38337V9.88477H8.63379V8.92522L9.67921 7.96841C10.1877 7.50298 10.4795 6.84112 10.4795 6.15234C10.4795 4.7953 9.3756 3.69141 8.01855 3.69141C6.66151 3.69141 5.55762 4.7953 5.55762 6.15234H6.78809C6.78809 5.47382 7.34003 4.92188 8.01855 4.92188C8.69707 4.92188 9.24902 5.47382 9.24902 6.15234Z" fill="black"/>
</svg>
