<svg width="27" height="29" viewBox="0 0 27 29" fill="none" xmlns="http://www.w3.org/2000/svg">
<path d="M22.052 9.0625C19.5545 9.0625 17.5208 7.03008 17.5208 4.53125C17.5208 2.03242 19.5545 0 22.052 0C24.5497 0 26.5833 2.03242 26.5833 4.53125C26.5833 7.03008 24.5497 9.0625 22.052 9.0625ZM22.052 1.8125C20.5537 1.8125 19.3333 3.0316 19.3333 4.53125C19.3333 6.0309 20.5537 7.25 22.052 7.25C23.5503 7.25 24.7708 6.0309 24.7708 4.53125C24.7708 3.0316 23.5503 1.8125 22.052 1.8125Z" fill="black"/>
<path d="M22.052 29C19.5545 29 17.5208 26.9676 17.5208 24.4688C17.5208 21.9699 19.5545 19.9375 22.052 19.9375C24.5497 19.9375 26.5833 21.9699 26.5833 24.4688C26.5833 26.9676 24.5497 29 22.052 29ZM22.052 21.75C20.5537 21.75 19.3333 22.9691 19.3333 24.4688C19.3333 25.9684 20.5537 27.1875 22.052 27.1875C23.5503 27.1875 24.7708 25.9684 24.7708 24.4688C24.7708 22.9691 23.5503 21.75 22.052 21.75Z" fill="black"/>
<path d="M4.53125 19.0312C2.03353 19.0312 0 16.9988 0 14.5C0 12.0012 2.03353 9.96875 4.53125 9.96875C7.02897 9.96875 9.0625 12.0012 9.0625 14.5C9.0625 16.9988 7.02897 19.0312 4.53125 19.0312ZM4.53125 11.7812C3.03293 11.7812 1.8125 13.0004 1.8125 14.5C1.8125 15.9996 3.03293 17.2188 4.53125 17.2188C6.02957 17.2188 7.25 15.9996 7.25 14.5C7.25 13.0004 6.02957 11.7812 4.53125 11.7812Z" fill="black"/>
<path d="M7.68633 13.6178C7.37082 13.6178 7.06394 13.4535 6.89845 13.1612C6.65065 12.7262 6.80176 12.1726 7.23674 11.925L18.4489 5.53284C18.8826 5.28282 19.4373 5.43505 19.6837 5.87136C19.9315 6.30634 19.7804 6.85969 19.3454 7.10749L8.13326 13.4995C7.99188 13.5791 7.83855 13.6178 7.68633 13.6178Z" fill="black"/>
<path d="M18.8972 23.5866C18.745 23.5866 18.5914 23.5479 18.4501 23.4671L7.23787 17.0749C6.80288 16.8273 6.65199 16.2738 6.89957 15.8388C7.14605 15.4027 7.69962 15.2516 8.1346 15.5005L19.3466 21.8925C19.7815 22.1403 19.9327 22.6936 19.6851 23.1286C19.5183 23.4222 19.2114 23.5866 18.8972 23.5866Z" fill="black"/>
</svg>
