<svg width="25" height="15" viewBox="0 0 25 15" fill="none" xmlns="http://www.w3.org/2000/svg">
<path d="M24.8672 13.5466C24.8367 13.4782 24.8086 13.421 24.7823 13.3754C24.3483 12.554 23.5198 11.5454 22.2964 10.3499L22.2701 10.3227L22.2572 10.3087L22.2443 10.2955H22.2313C21.6759 9.73861 21.3244 9.36454 21.1772 9.1725C20.9083 8.80802 20.8474 8.43835 20.995 8.06427C21.0996 7.78141 21.4899 7.18369 22.1667 6.27071C22.5223 5.78741 22.8042 5.39973 23.0127 5.10687C24.5138 3.00804 25.1643 1.66697 24.9649 1.08245L24.8866 0.94562C24.8345 0.863203 24.6998 0.787987 24.483 0.719573C24.2661 0.651159 23.9884 0.640357 23.6503 0.685566L19.9017 0.713572C19.815 0.70437 19.7283 0.706771 19.6411 0.719973C19.5544 0.733976 19.4981 0.747579 19.4719 0.761182C19.4456 0.775185 19.4243 0.786387 19.4068 0.795189L19.3547 0.836397C19.3113 0.863603 19.2638 0.911613 19.2117 0.980427C19.1596 1.04884 19.1158 1.12846 19.0816 1.22008C18.6738 2.3243 18.2097 3.35091 17.6889 4.3003C17.3678 4.86602 17.0726 5.35692 16.8041 5.7718C16.5351 6.18749 16.3095 6.49315 16.1273 6.68879C15.9451 6.88483 15.78 7.04286 15.6328 7.16089C15.4852 7.28011 15.3722 7.32972 15.2946 7.31172C15.2163 7.29372 15.1425 7.27531 15.0732 7.25651C14.9519 7.17449 14.8537 7.06287 14.7803 6.92124C14.7065 6.78001 14.6567 6.60197 14.6304 6.38753C14.6046 6.17309 14.589 5.98825 14.5852 5.83302C14.5806 5.67779 14.5829 5.45894 14.5916 5.17608C14.6004 4.89323 14.6046 4.70199 14.6046 4.60117C14.6046 4.2547 14.611 3.87822 14.6243 3.47174C14.6373 3.06565 14.6483 2.74399 14.6567 2.50674C14.6654 2.26989 14.6696 2.01864 14.6696 1.75378C14.6696 1.48973 14.6544 1.28169 14.624 1.13086C14.5935 0.980427 14.5479 0.834797 14.4874 0.692768C14.4265 0.551539 14.3375 0.441917 14.2204 0.364701C14.1032 0.287085 13.9579 0.225472 13.7844 0.179863C13.3241 0.0702408 12.7387 0.0114287 12.0273 0.00182679C10.4132 -0.0157768 9.37626 0.0938456 8.91635 0.330694C8.73413 0.431515 8.56904 0.567942 8.42182 0.741578C8.26547 0.942419 8.24379 1.05244 8.35677 1.06964C8.87755 1.15206 9.24616 1.3485 9.46299 1.65857L9.54136 1.8226C9.60184 1.94182 9.66271 2.15147 9.72357 2.45233C9.78444 2.75359 9.82324 3.08646 9.84073 3.45173C9.8841 4.11787 9.8841 4.68798 9.84073 5.16288C9.79737 5.63778 9.75628 6.00705 9.7171 6.27111C9.67792 6.53596 9.61934 6.75 9.54136 6.91444C9.46299 7.07927 9.41126 7.17969 9.38501 7.2161C9.35876 7.25251 9.33746 7.27531 9.31996 7.28451C9.20698 7.32972 9.09019 7.35293 8.96846 7.35293C8.84673 7.35293 8.69952 7.28891 8.52567 7.16089C8.3522 7.03366 8.17189 6.85763 7.98549 6.63398C7.79871 6.41074 7.58873 6.09787 7.35402 5.69619C7.11969 5.29491 6.87661 4.82041 6.62516 4.2727L6.41708 3.87542C6.28698 3.62017 6.10895 3.24809 5.88337 2.75999C5.65779 2.27189 5.45807 1.79979 5.28461 1.3429C5.21499 1.15166 5.11114 1.00563 4.97229 0.904811L4.90724 0.863603C4.86388 0.827195 4.79426 0.788387 4.69878 0.747579C4.60292 0.706371 4.50363 0.676765 4.3994 0.658361L0.83309 0.685566C0.468661 0.685566 0.221397 0.772784 0.0912976 0.94602L0.0391819 1.02804C0.0129338 1.07405 0 1.14726 0 1.24728C0 1.3481 0.026248 1.47093 0.0783637 1.61656C0.59914 2.90362 1.16518 4.14467 1.77688 5.33972C2.38895 6.53556 2.92 7.49856 3.37154 8.22831C3.8227 8.95886 4.28262 9.6474 4.75128 10.2955C5.21994 10.9437 5.52997 11.3585 5.68175 11.541C5.83353 11.7238 5.9526 11.8606 6.03971 11.9519L6.36496 12.2807C6.57304 12.4996 6.87927 12.762 7.2825 13.0677C7.68611 13.3738 8.13271 13.6746 8.62305 13.9707C9.11302 14.2675 9.68401 14.5088 10.3345 14.6964C10.9854 14.8837 11.6188 14.9589 12.2346 14.9221H13.7315C14.0355 14.8949 14.2652 14.7948 14.4212 14.6208L14.4733 14.5524C14.5079 14.498 14.5407 14.4132 14.5711 14.2995C14.6011 14.1855 14.6167 14.0599 14.6167 13.9231C14.6076 13.5306 14.6361 13.1765 14.7012 12.8621C14.7662 12.5472 14.84 12.3099 14.9226 12.1499C15.0051 11.9907 15.098 11.8558 15.2026 11.7462C15.3068 11.6366 15.3802 11.571 15.424 11.5478C15.4673 11.5254 15.5023 11.5094 15.5282 11.4998C15.7363 11.427 15.9813 11.4978 16.2635 11.7118C16.5454 11.9267 16.8102 12.1907 17.0574 12.506C17.3047 12.8208 17.6018 13.1741 17.9491 13.567C18.296 13.9595 18.5996 14.2511 18.8602 14.4428L19.1208 14.6076C19.2942 14.7168 19.5198 14.8173 19.7975 14.9089C20.0752 14.9997 20.3183 15.0229 20.5264 14.9773L23.8583 14.9221C24.1881 14.9221 24.4442 14.8653 24.6264 14.7508C24.8086 14.6376 24.917 14.5112 24.9516 14.3744C24.9862 14.2375 24.9885 14.0831 24.9581 13.9091C24.9277 13.7358 24.8972 13.615 24.8672 13.5466Z" fill="black"/>
</svg>
