<svg width="20" height="12" viewBox="0 0 20 12" fill="none" xmlns="http://www.w3.org/2000/svg">
<path d="M19.8937 10.8373C19.8694 10.7825 19.8469 10.7368 19.8259 10.7003C19.4786 10.0432 18.8158 9.23631 17.8371 8.27995L17.8161 8.25819L17.8058 8.24698L17.7954 8.23642H17.7851C17.3408 7.79089 17.0596 7.49163 16.9418 7.338C16.7266 7.04642 16.6779 6.75068 16.796 6.45142C16.8797 6.22513 17.1919 5.74695 17.7333 5.01657C18.0179 4.62993 18.2434 4.31978 18.4102 4.0855C19.611 2.40643 20.1314 1.33357 19.9719 0.865958L19.9093 0.756496C19.8676 0.690562 19.7598 0.63039 19.5864 0.575659C19.4129 0.520927 19.1907 0.512286 18.9202 0.548453L15.9214 0.570858C15.852 0.563496 15.7826 0.565417 15.7129 0.575979C15.6435 0.587181 15.5985 0.598063 15.5775 0.608945C15.5565 0.620148 15.5395 0.62911 15.5255 0.636151L15.4838 0.669118C15.4491 0.690882 15.411 0.72929 15.3693 0.784341C15.3276 0.839072 15.2926 0.902765 15.2653 0.97606C14.939 1.85944 14.5677 2.68073 14.1511 3.44024C13.8943 3.89282 13.6581 4.28554 13.4433 4.61744C13.2281 4.94999 13.0476 5.19452 12.9019 5.35103C12.7561 5.50787 12.624 5.63429 12.5062 5.72871C12.3882 5.82409 12.2978 5.86378 12.2357 5.84937C12.173 5.83497 12.114 5.82025 12.0586 5.80521C11.9615 5.73959 11.883 5.65029 11.8243 5.53699C11.7652 5.42401 11.7253 5.28158 11.7043 5.11002C11.6837 4.93847 11.6712 4.7906 11.6681 4.66641C11.6645 4.54223 11.6663 4.36715 11.6733 4.14087C11.6803 3.91458 11.6837 3.76159 11.6837 3.68093C11.6837 3.40376 11.6888 3.10257 11.6995 2.77739C11.7098 2.45252 11.7186 2.19519 11.7253 2.00539C11.7323 1.81591 11.7357 1.61491 11.7357 1.40303C11.7357 1.19178 11.7235 1.02535 11.6992 0.904686C11.6748 0.784341 11.6383 0.667838 11.5899 0.554214C11.5412 0.441231 11.47 0.353533 11.3763 0.291761C11.2826 0.229668 11.1663 0.180378 11.0275 0.143891C10.6593 0.0561926 10.1909 0.009143 9.62185 0.00146143C8.3306 -0.0126214 7.50101 0.0750765 7.13308 0.264555C6.98731 0.345212 6.85523 0.454354 6.73745 0.593262C6.61238 0.753935 6.59503 0.841953 6.68542 0.855716C7.10204 0.921649 7.39693 1.0788 7.57039 1.32685L7.63308 1.45808C7.68147 1.55346 7.73016 1.72117 7.77886 1.96186C7.82755 2.20287 7.85859 2.46917 7.87259 2.76138C7.90728 3.29429 7.90728 3.75039 7.87259 4.1303C7.83789 4.51022 7.80503 4.80564 7.77368 5.01689C7.74234 5.22877 7.69547 5.4 7.63308 5.53155C7.57039 5.66342 7.529 5.74375 7.50801 5.77288C7.48701 5.80201 7.46997 5.82025 7.45597 5.82761C7.36558 5.86378 7.27215 5.88234 7.17477 5.88234C7.07739 5.88234 6.95961 5.83113 6.82054 5.72871C6.68176 5.62693 6.53751 5.4861 6.38839 5.30718C6.23897 5.12859 6.07098 4.8783 5.88321 4.55695C5.69575 4.23593 5.50129 3.85633 5.30013 3.41816L5.13366 3.10033C5.02958 2.89613 4.88716 2.59847 4.70669 2.20799C4.52623 1.81751 4.36646 1.43984 4.22769 1.07432C4.17199 0.921329 4.08891 0.804505 3.97783 0.723849L3.92579 0.690882C3.8911 0.661756 3.83541 0.63071 3.75902 0.598063C3.68233 0.565096 3.60291 0.541412 3.51952 0.526689L0.666472 0.548453C0.374929 0.548453 0.177117 0.618227 0.073038 0.756816L0.0313455 0.822429C0.0103471 0.859237 0 0.917809 0 0.997825C0 1.07848 0.0209984 1.17674 0.062691 1.29325C0.479312 2.3229 0.932148 3.31574 1.4215 4.27177C1.91116 5.22845 2.336 5.99885 2.69723 6.58264C3.05816 7.16708 3.42609 7.71792 3.80102 8.23642C4.17595 8.75493 4.42397 9.08684 4.5454 9.23279C4.66683 9.37906 4.76208 9.48852 4.83177 9.56149L5.09197 9.82459C5.25843 9.99966 5.50342 10.2096 5.826 10.4542C6.14889 10.699 6.50617 10.9397 6.89844 11.1765C7.29041 11.414 7.74721 11.607 8.2676 11.7571C8.7883 11.9069 9.295 11.9671 9.78771 11.9377H10.9852C11.2284 11.9159 11.4122 11.8359 11.537 11.6966L11.5787 11.6419C11.6064 11.5984 11.6325 11.5305 11.6569 11.4396C11.6809 11.3484 11.6934 11.2479 11.6934 11.1385C11.6861 10.8245 11.7089 10.5412 11.761 10.2896C11.813 10.0377 11.872 9.84795 11.9381 9.71992C12.0041 9.59254 12.0784 9.48468 12.1621 9.39698C12.2454 9.30928 12.3042 9.25679 12.3392 9.23823C12.3739 9.2203 12.4019 9.2075 12.4226 9.19982C12.589 9.14157 12.785 9.19822 13.0108 9.36945C13.2363 9.54133 13.4481 9.75257 13.6459 10.0048C13.8438 10.2567 14.0814 10.5393 14.3593 10.8536C14.6368 11.1676 14.8797 11.4009 15.0881 11.5542L15.2966 11.6861C15.4354 11.7735 15.6158 11.8538 15.838 11.9271C16.0602 11.9998 16.2546 12.0183 16.4211 11.9818L19.0867 11.9377C19.3505 11.9377 19.5553 11.8922 19.7011 11.8007C19.8469 11.7101 19.9336 11.609 19.9613 11.4995C19.989 11.39 19.9908 11.2665 19.9665 11.1273C19.9421 10.9887 19.9178 10.892 19.8937 10.8373Z" fill="white"/>
</svg>
