<svg width="17" height="12" viewBox="0 0 17 12" fill="none" xmlns="http://www.w3.org/2000/svg">
<path d="M16.7873 2.39005C16.6261 1.12346 15.8908 0.329004 14.5858 0.211654C13.0914 0.0773235 9.85659 0 8.35618 0C5.28709 0 3.91558 0.0745944 2.46422 0.224087C1.08113 0.366301 0.475659 0.977915 0.237677 2.24056C0.0709984 3.12539 0 3.95411 0 5.91267C0 7.67201 0.0834917 8.77849 0.21269 9.7094C0.390339 10.9878 1.27218 11.7062 2.56447 11.8132C4.06793 11.9378 7.07973 12 8.56887 12C10.0077 12 13.2459 11.9254 14.6857 11.7635C15.9743 11.6185 16.5871 10.9335 16.7873 9.67211C16.7873 9.67211 17 8.29029 17 5.90024C17 4.53934 16.9001 3.27366 16.7873 2.39005ZM6.69244 8.37762V3.51443L11.3457 5.92116L6.69244 8.37762Z" fill="white"/>
</svg>
