<svg width="26" height="18" viewBox="0 0 26 18" fill="none" xmlns="http://www.w3.org/2000/svg">
<path d="M25.6747 3.58508C25.4282 1.6852 24.3036 0.493506 22.3076 0.317481C20.0222 0.115985 15.0748 0 12.78 0C8.08614 0 5.98853 0.111892 3.76881 0.33613C1.65349 0.549452 0.727478 1.46687 0.363506 3.36084C0.108586 4.68808 0 5.93117 0 8.86901C0 11.508 0.127693 13.1677 0.325291 14.5641C0.596989 16.4817 1.94569 17.5593 3.92214 17.7198C6.22155 17.9068 10.8278 18 13.1053 18C15.3059 18 20.2585 17.8881 22.4605 17.6452C24.4313 17.4278 25.3685 16.4003 25.6747 14.5082C25.6747 14.5082 26 12.4354 26 8.85036C26 6.80902 25.8471 4.9105 25.6747 3.58508ZM10.2355 12.5664V5.27164L17.3523 8.88174L10.2355 12.5664Z" fill="black"/>
</svg>
