<svg width="89" height="88" viewBox="0 0 89 88" fill="none" xmlns="http://www.w3.org/2000/svg">
<path d="M54.6719 36.1741C54.2865 36.174 53.917 36.0209 53.6445 35.7484L46.4516 28.5554C45.3615 27.4653 44.7491 25.9868 44.7491 24.4452C44.7491 23.6819 44.8994 22.926 45.1915 22.2208C45.4837 21.5156 45.9118 20.8748 46.4516 20.3351C46.9913 19.7953 47.6321 19.3672 48.3373 19.075C49.0426 18.7829 49.7984 18.6326 50.5617 18.6326C52.1033 18.6326 53.5818 19.245 54.6719 20.3351C55.2049 19.7671 55.8465 19.3121 56.5588 18.997C57.271 18.6819 58.0394 18.5131 58.8181 18.5007C59.5969 18.4884 60.3702 18.6326 61.0921 18.925C61.814 19.2173 62.4698 19.6517 63.0205 20.2024C63.5712 20.7532 64.0056 21.409 64.298 22.1309C64.5903 22.8528 64.7346 23.6261 64.7222 24.4048C64.7098 25.1836 64.5411 25.9519 64.226 26.6642C63.9109 27.3764 63.4558 28.0181 62.8879 28.551L55.6949 35.744C55.4242 36.0171 55.0564 36.1717 54.6719 36.1741ZM50.5596 21.5455C49.9862 21.5471 49.426 21.7182 48.9497 22.0374C48.4733 22.3565 48.102 22.8095 47.8825 23.3392C47.663 23.8689 47.6051 24.4518 47.7161 25.0143C47.8271 25.5769 48.102 26.094 48.5063 26.5007L54.6719 32.6663L60.8375 26.5007C61.3454 25.9489 61.6203 25.2221 61.6048 24.4723C61.5892 23.7225 61.2844 23.0078 60.7542 22.4775C60.2239 21.9472 59.5091 21.6424 58.7593 21.6269C58.0095 21.6114 57.2828 21.8863 56.731 22.3941L55.6993 23.4259C55.4268 23.6983 55.0572 23.8513 54.6719 23.8513C54.2866 23.8513 53.917 23.6983 53.6445 23.4259L52.6128 22.3941C52.3434 22.1243 52.0233 21.9104 51.6709 21.7648C51.3186 21.6191 50.9408 21.5446 50.5596 21.5455Z" fill="black"/>
<path d="M75.0156 46.346C74.6303 46.3459 74.2607 46.1928 73.9883 45.9202L66.7953 38.7273C66.2556 38.1875 65.8274 37.5467 65.5353 36.8415C65.2432 36.1363 65.0928 35.3804 65.0928 34.6171C65.0928 33.8538 65.2432 33.0979 65.5353 32.3927C65.8274 31.6875 66.2556 31.0467 66.7953 30.5069C67.3351 29.9672 67.9759 29.539 68.6811 29.2469C69.3863 28.9548 70.1422 28.8045 70.9055 28.8045C71.6688 28.8045 72.4247 28.9548 73.1299 29.2469C73.8351 29.539 74.4759 29.9672 75.0156 30.5069C75.5486 29.939 76.1903 29.484 76.9025 29.1688C77.6148 28.8537 78.3831 28.685 79.1619 28.6726C79.9406 28.6602 80.7139 28.8045 81.4358 29.0968C82.1577 29.3892 82.8135 29.8236 83.3642 30.3743C83.915 30.925 84.3494 31.5808 84.6417 32.3027C84.934 33.0247 85.0783 33.798 85.0659 34.5767C85.0536 35.3555 84.8848 36.1238 84.5697 36.836C84.2546 37.5483 83.7996 38.19 83.2316 38.7229L76.0386 45.9159C75.768 46.1889 75.4001 46.3436 75.0156 46.346ZM70.9033 31.7174C70.3299 31.7189 69.7698 31.8901 69.2934 32.2092C68.8171 32.5284 68.4458 32.9814 68.2263 33.5111C68.0068 34.0408 67.9489 34.6236 68.0599 35.1862C68.1709 35.7487 68.4458 36.2659 68.85 36.6726L75.0156 42.8382L81.1813 36.6726C81.6891 36.1208 81.964 35.394 81.9485 34.6442C81.933 33.8944 81.6282 33.1797 81.0979 32.6494C80.5676 32.1191 79.8529 31.8143 79.1031 31.7988C78.3533 31.7832 77.6265 32.0581 77.0747 32.566L76.043 33.5977C75.7705 33.8702 75.401 34.0232 75.0156 34.0232C74.6303 34.0232 74.2608 33.8702 73.9883 33.5977L72.9566 32.566C72.6872 32.2962 72.3671 32.0823 72.0147 31.9366C71.6623 31.791 71.2846 31.7165 70.9033 31.7174Z" fill="black"/>
<path d="M75.0156 23.0961C74.6302 23.096 74.2607 22.9429 73.9882 22.6704L63.7147 12.3968C62.3533 11.0327 61.5887 9.18425 61.5887 7.25706C61.5887 5.32988 62.3533 3.48142 63.7147 2.11736C65.0808 0.761107 66.9278 0 68.8529 0C70.778 0 72.625 0.761107 73.9912 2.11736L75.0083 3.14181L76.0255 2.12463C77.3918 0.767489 79.2395 0.00582247 81.1652 0.00582247C83.091 0.00582247 84.9386 0.767489 86.3049 2.12463C87.666 3.48888 88.4303 5.33727 88.4303 7.26433C88.4303 9.19139 87.666 11.0398 86.3049 12.404L76.0299 22.6776C75.7595 22.9443 75.3954 23.0945 75.0156 23.0961ZM68.85 2.89769C67.9882 2.89845 67.1459 3.15464 66.4296 3.63388C65.7134 4.11313 65.1552 4.79393 64.8257 5.59027C64.4962 6.38661 64.4101 7.26275 64.5783 8.10799C64.7465 8.95324 65.1615 9.72965 65.7708 10.3391L75.0156 19.5883L84.2618 10.342C85.078 9.5228 85.5363 8.4135 85.5363 7.25706C85.5363 6.10063 85.078 4.99133 84.2618 4.17208C83.4412 3.35748 82.3317 2.90034 81.1754 2.90034C80.0191 2.90034 78.9096 3.35748 78.089 4.17208L76.043 6.22099C75.7705 6.49341 75.4009 6.64644 75.0156 6.64644C74.6303 6.64644 74.2608 6.49341 73.9882 6.22099L71.9393 4.17208C71.119 3.35485 70.0079 2.89651 68.85 2.89769Z" fill="black"/>
<path d="M64.8437 60.8772C64.4584 60.8772 64.0888 60.724 63.8164 60.4515L59.704 56.3391C58.9613 55.6005 58.5094 54.6192 58.4309 53.5748C58.3524 52.5303 58.6526 51.4924 59.2766 50.6511C59.9005 49.8098 60.8065 49.2213 61.8288 48.9933C62.8511 48.7652 63.9214 48.9129 64.8437 49.4092C65.7659 48.9129 66.836 48.7653 67.8581 48.9932C68.8803 49.2211 69.7862 49.8093 70.4103 50.6503C71.0343 51.4913 71.3348 52.5289 71.2567 53.5732C71.1785 54.6176 70.7271 55.5989 69.9849 56.3377L65.8711 60.4515C65.5986 60.724 65.2291 60.8772 64.8437 60.8772ZM62.7876 51.801C62.4996 51.8005 62.218 51.8856 61.9785 52.0454C61.7389 52.2052 61.5523 52.4326 61.4422 52.6987C61.3321 52.9647 61.3036 53.2575 61.3602 53.5399C61.4168 53.8222 61.556 54.0813 61.7602 54.2844L64.8437 57.3694L67.9287 54.2844C68.2016 54.0116 68.3549 53.6415 68.3549 53.2556C68.3549 52.8697 68.2016 52.4996 67.9287 52.2268C67.6559 51.9539 67.2858 51.8006 66.8999 51.8006C66.514 51.8006 66.1439 51.9539 65.8711 52.2268C65.5986 52.4992 65.229 52.6522 64.8437 52.6522C64.4584 52.6522 64.0889 52.4992 63.8164 52.2268C63.6813 52.0917 63.5209 51.9845 63.3444 51.9115C63.1678 51.8384 62.9786 51.8009 62.7876 51.801Z" fill="black"/>
<path d="M61.9201 67.813C61.6357 67.3149 61.2555 66.878 60.8014 66.5277C60.3473 66.1774 59.8283 65.9205 59.2744 65.7718C58.7204 65.6232 58.1425 65.5858 57.574 65.6618C57.0055 65.7378 56.4577 65.9256 55.9622 66.2145L44.3547 72.9134C44.1225 71.9699 43.5817 71.131 42.8182 70.53C42.0547 69.9289 41.1123 69.6002 40.1406 69.596H28.8586L26.8721 68.602C26.2668 68.3006 25.5998 68.1434 24.9235 68.1428H18.2624C17.1346 68.1444 16.0225 68.407 15.0132 68.9101L12.5312 70.151V68.1428C12.5312 67.7574 12.3782 67.3878 12.1056 67.1153C11.8331 66.8428 11.4635 66.6897 11.0781 66.6897H2.35938C1.97398 66.6897 1.60437 66.8428 1.33186 67.1153C1.05935 67.3878 0.90625 67.7574 0.90625 68.1428V85.5803C0.90625 85.9657 1.05935 86.3353 1.33186 86.6078C1.60437 86.8804 1.97398 87.0334 2.35938 87.0334H11.0781C11.4635 87.0334 11.8331 86.8804 12.1056 86.6078C12.3782 86.3353 12.5312 85.9657 12.5312 85.5803V83.9354L13.1663 84.3597C14.3596 85.1563 15.7624 85.5811 17.1972 85.5803H36.9321C39.2942 85.5809 41.6123 84.9411 43.6398 83.729L60.3245 73.7606C60.987 73.377 61.537 72.826 61.9195 72.163C62.302 71.4999 62.5037 70.748 62.5042 69.9825C62.5105 69.2196 62.3085 68.4695 61.9201 67.813ZM9.625 84.1272H3.8125V69.596H9.625V84.1272ZM58.8525 71.2554L42.1503 81.234C40.5729 82.1766 38.7697 82.6742 36.9321 82.6741H17.1972C16.3371 82.6767 15.4955 82.4238 14.7792 81.9475L12.5312 80.4435V73.4002L16.3094 71.5112C16.9156 71.2073 17.5843 71.0491 18.2624 71.0491H24.9235C25.1483 71.0474 25.3704 71.0971 25.573 71.1944L27.8661 72.3424C28.0672 72.4454 28.2896 72.5002 28.5156 72.5022H40.1406C40.526 72.5022 40.8956 72.6553 41.1681 72.9278C41.4407 73.2003 41.5938 73.5699 41.5938 73.9553C41.5938 74.3407 41.4407 74.7103 41.1681 74.9828C40.8956 75.2554 40.526 75.4085 40.1406 75.4085H29.9688C29.5834 75.4085 29.2137 75.5615 28.9412 75.8341C28.6687 76.1066 28.5156 76.4762 28.5156 76.8616C28.5156 77.247 28.6687 77.6166 28.9412 77.8891C29.2137 78.1616 29.5834 78.3147 29.9688 78.3147H40.1406C40.758 78.3127 41.3678 78.1788 41.9292 77.9219C42.4906 77.665 42.9905 77.2911 43.3956 76.8252L57.4241 68.7241C57.5879 68.6281 57.7691 68.5659 57.9573 68.5409C58.1454 68.516 58.3366 68.5288 58.5197 68.5788C58.7103 68.6304 58.8883 68.7202 59.0429 68.8429C59.1976 68.9656 59.3256 69.1185 59.4192 69.2923C59.5401 69.5035 59.6019 69.7435 59.598 69.9868C59.5965 70.2452 59.5268 70.4986 59.3959 70.7214C59.265 70.9442 59.0775 71.1284 58.8525 71.2554Z" fill="black"/>
<path d="M51.7656 37.6274H25.6094C24.8386 37.6274 24.0994 37.9336 23.5543 38.4787C23.0093 39.0237 22.7031 39.7629 22.7031 40.5337V63.7837C22.7031 64.5545 23.0093 65.2937 23.5543 65.8387C24.0994 66.3837 24.8386 66.6899 25.6094 66.6899H51.7656C52.5364 66.6899 53.2756 66.3837 53.8207 65.8387C54.3657 65.2937 54.6719 64.5545 54.6719 63.7837V40.5337C54.6719 39.7629 54.3657 39.0237 53.8207 38.4787C53.2756 37.9336 52.5364 37.6274 51.7656 37.6274ZM41.5938 40.5337V50.8959L39.494 49.4966C39.2552 49.3372 38.9746 49.2522 38.6875 49.2522C38.4004 49.2522 38.1198 49.3372 37.881 49.4966L35.7812 50.8959V40.5337H41.5938ZM25.6094 63.7837V40.5337H32.875V53.6118C32.875 53.8749 32.9463 54.133 33.0815 54.3587C33.2167 54.5844 33.4106 54.7692 33.6426 54.8933C33.8746 55.0174 34.1359 55.0762 34.3986 55.0634C34.6614 55.0507 34.9158 54.9668 35.1346 54.8208L38.6875 52.4493L42.2404 54.8179C42.459 54.9638 42.7131 55.0476 42.9757 55.0605C43.2382 55.0734 43.4993 55.0148 43.7311 54.8911C43.963 54.7673 44.157 54.583 44.2924 54.3577C44.4278 54.1324 44.4995 53.8746 44.5 53.6118V40.5337H51.7656V63.7837H25.6094Z" fill="black"/>
</svg>
