<svg width="45" height="45" viewBox="0 0 45 45" fill="none" xmlns="http://www.w3.org/2000/svg">
<path d="M40.7032 9.27176L32.4308 8.82812L29.4547 1.09375L22.5 5.60292L15.5453 1.09375L12.5692 8.82812L4.29684 9.27176L6.42674 17.277L0 22.5L6.42669 27.7231L4.29684 35.7283L12.5692 36.172L15.5453 43.9063L22.5 39.3971L29.4547 43.9063L32.4308 36.172L40.7032 35.7283L38.5733 27.7231L45 22.5L38.5733 17.277L40.7032 9.27176ZM40.1041 22.5L35.0758 26.5866L36.7417 32.8485L30.2676 33.1957L27.9401 39.2443L22.5 35.7171L17.0599 39.2443L14.7324 33.1957L8.2582 32.8485L9.92425 26.5868L4.89587 22.5L9.92429 18.4134L8.25825 12.1516L14.7324 11.8044L17.0599 5.75581L22.5 9.28298L27.9401 5.75577L30.2676 11.8043L36.7417 12.1515L35.0758 18.4133L40.1041 22.5Z" fill="#FFE512"/>
<circle cx="22.5" cy="22.5" r="15.75" fill="#FFE512"/>
<path d="M37.0625 11.3767L30.4447 11.0036L28.0638 4.5L22.5 8.29165L16.9362 4.5L14.5553 11.0036L7.93747 11.3767L9.64139 18.1081L4.5 22.5L9.64135 26.8919L7.93747 33.6233L14.5553 33.9964L16.9362 40.5L22.5 36.7084L28.0638 40.5L30.4447 33.9964L37.0625 33.6233L35.3586 26.8919L40.5 22.5L35.3586 18.1081L37.0625 11.3767ZM36.5833 22.5L32.5606 25.9363L33.8934 31.2018L28.7141 31.4937L26.8521 36.5798L22.5 33.6139L18.1479 36.5798L16.2859 31.4937L11.1066 31.2018L12.4394 25.9365L8.4167 22.5L12.4394 19.0637L11.1066 13.7982L16.2859 13.5063L18.1479 8.42021L22.5 11.3861L26.8521 8.42017L28.7141 13.5063L33.8934 13.7982L32.5606 19.0636L36.5833 22.5Z" fill="#FFE512"/>
<path d="M19.2769 26.6398H23.8259V24.3693H21.5474V23.5897H23.8259V21.3193H21.5474V20.5396H23.8259V18.2238H19.2769V26.6398Z" fill="#242324"/>
<path d="M16.2467 21.9994L13.5071 18.2136H11.8323V26.6397V26.6956H14.1027V26.6397V22.9095L16.8021 26.6397H18.5171V18.2136H16.2467V21.9994Z" fill="#242324"/>
<path d="M32.8817 18.2086L32.8787 18.2135L30.7845 21.5723V18.2135H29.0414L26.8413 21.6553V18.2135H24.5708V26.6396H26.3498L28.5141 23.2537V26.6396H30.3009L34.8084 19.4098L32.8896 18.2135L32.8817 18.2086Z" fill="#242324"/>
</svg>
