<svg width="85" height="85" viewBox="0 0 85 85" fill="none" xmlns="http://www.w3.org/2000/svg">
<path d="M76.105 48.1138H73.962C75.9553 46.0964 77.1885 43.3264 77.1885 40.2731V37.6713C77.1885 37.6073 77.1885 36.325 77.1885 36.325C77.1885 30.1698 72.1808 25.1621 66.0256 25.1621C59.8704 25.1621 54.8627 30.1698 54.8627 36.325V38.75L47.3003 29.1987C46.3328 27.9764 44.7558 27.5182 43.2844 28.0301C43.0027 28.128 42.7406 28.2567 42.5 28.4109C42.2594 28.2567 41.9973 28.128 41.7156 28.0301C40.2437 27.5179 38.6672 27.9766 37.7 29.198L33.4933 34.5058C32.562 27.3416 26.4206 21.79 19.0065 21.79C10.9509 21.79 4.39709 28.3438 4.39709 36.3994V49.3413C1.7689 50.8888 0 53.7462 0 57.0108V83.34C0 84.2567 0.743418 85.0002 1.66016 85.0002H29.3424C29.7827 85.0002 30.205 84.8252 30.5163 84.5137C30.8278 84.2024 31.0026 83.7801 31.0026 83.3398L30.9998 61.5161L42.5 41.2245L45.2716 46.1148C45.724 46.9129 46.7374 47.1923 47.5346 46.7407C48.3323 46.2885 48.6124 45.2754 48.1605 44.4777L44.2193 37.5237C44.1947 37.48 44.1814 37.4305 44.1814 37.3807V31.4392C44.1814 31.3776 44.1814 31.2337 44.3756 31.1661C44.5692 31.0985 44.6592 31.2114 44.6974 31.2597L56.771 46.5091C57.0893 46.9798 57.4436 47.4238 57.8279 47.8399C57.8744 47.8957 57.924 47.947 57.9758 47.9951C58.5393 48.5823 59.1646 49.1091 59.8437 49.5626C59.8596 49.6926 59.8893 49.8228 59.9378 49.9506L64.4742 61.9205C64.7174 62.5623 65.3305 62.9883 66.0168 62.9923C66.0201 62.9923 66.0233 62.9923 66.0266 62.9923C66.7091 62.9923 67.3225 62.5744 67.572 61.9384L71.6937 51.4345H76.105C79.179 51.4345 81.6797 53.9351 81.6797 57.0091V81.6782H78.0522L78.0511 60.3566C78.0511 59.4399 77.3077 58.6966 76.3908 58.6966C75.474 58.6966 74.7308 59.4401 74.7308 60.357L74.7319 81.68H57.3177L57.3204 61.0788C57.3204 60.7918 57.2462 60.5097 57.1046 60.26L53.7876 54.4071C53.3355 53.6093 52.3221 53.3299 51.5246 53.7812C50.7269 54.2335 50.4468 55.2465 50.8987 56.0442L54.0001 61.5161C54.0001 61.5161 53.9972 83.1509 53.9972 83.34C53.9972 84.2567 54.7407 85.0002 55.6574 85.0002L83.3398 84.9982C84.2566 84.9982 85 84.2547 85 83.338V57.0089C85 52.1042 81.0098 48.1138 76.105 48.1138ZM7.71757 36.3992C7.71757 30.1745 12.7819 25.1102 19.0068 25.1102C25.2316 25.1102 30.2957 30.1743 30.2957 36.3992V38.5405L28.607 40.6713V36.0252C28.607 35.1083 27.8636 34.3651 26.9468 34.3651H11.0666C10.1499 34.3651 9.40645 35.1083 9.40645 36.0252V41.8356C9.40645 44.2355 10.2936 46.4307 11.7547 48.1156H8.89495C8.49568 48.1156 8.10306 48.1447 7.71757 48.196V36.3992ZM19.0066 48.116C15.5439 48.116 12.7268 45.2987 12.7268 41.8359V37.6857H25.2867V41.8359C25.2867 45.2985 22.4694 48.116 19.0066 48.116ZM21.208 51.1785L19.0061 56.7876L16.9062 51.4361H18.9744C18.9781 51.4361 18.9816 51.4356 18.9852 51.4356C18.9924 51.4356 18.9995 51.4361 19.0066 51.4361C19.7642 51.4361 20.5006 51.345 21.208 51.1785ZM40.8189 37.3807H40.8188C40.8188 37.4305 40.8056 37.48 40.7811 37.5233L27.8953 60.26C27.7537 60.5097 27.6795 60.7918 27.6795 61.0788L27.6821 81.68H10.2679L10.2687 68.3772C10.2687 67.4603 9.52548 66.7169 8.60874 66.7169C8.60857 66.7169 8.60857 66.7169 8.60857 66.7169C7.69184 66.7169 6.94842 67.4601 6.94842 68.3768L6.94759 81.68H3.32031V57.0108C3.32031 54.7722 4.64744 52.8386 6.55546 51.9526C6.66071 51.9196 6.76132 51.8761 6.85628 51.8238C7.48813 51.5746 8.17544 51.4361 8.89495 51.4361H13.3395L17.4605 61.9383C17.7099 62.5739 18.323 62.9921 19.0058 62.9921C19.006 62.9921 19.006 62.9921 19.006 62.9921C19.6886 62.9921 20.3019 62.5741 20.5514 61.9386L25.029 50.5322L33.0647 40.3928C33.2058 40.2658 33.3263 40.1162 33.4173 39.9478L40.303 31.2596C40.3411 31.2113 40.4311 31.0982 40.6247 31.1661C40.8189 31.2337 40.8189 31.3776 40.8189 31.4392V37.3807ZM66.0256 28.4825C70.0973 28.4825 73.4544 31.6016 73.8326 35.576L72.7417 35.5383C71.6706 35.5013 70.8316 34.6328 70.8316 33.5609C70.8316 32.8628 70.3948 32.2392 69.7387 32.0007C69.0824 31.7619 68.3473 31.9595 67.8989 32.4946C66.2263 34.4906 63.7732 35.6354 61.1691 35.6354H58.2129C58.5633 31.6328 61.9335 28.4825 66.0256 28.4825ZM66.0535 56.7184L63.9789 51.2449C64.643 51.3685 65.3263 51.4361 66.0256 51.4361C66.0513 51.4361 66.0765 51.4343 66.1023 51.4341H68.127L66.0535 56.7184ZM73.8683 40.2732C73.8683 44.572 70.3916 48.0725 66.1024 48.114H66.0257C66.0171 48.114 66.0086 48.1151 66.0002 48.1153C63.7706 48.1082 61.7585 47.1649 60.3336 45.6598L59.4655 44.5634C58.6556 43.3296 58.183 41.8559 58.183 40.2732V38.9559H61.1691C63.8159 38.9559 66.3491 38.0979 68.4217 36.544C69.3381 37.8951 70.8656 38.7959 72.6272 38.8568L73.8683 38.8996V40.2732Z" fill="black"/>
<path d="M47.6551 0.000244141C45.7964 0.000244141 43.9857 0.616328 42.4978 1.72664C41.0098 0.616328 39.1993 0.000244141 37.3406 0.000244141C32.5103 0.000244141 28.5807 4.03592 28.5807 8.9963C28.5807 11.8634 30.7549 15.3178 35.2274 19.5566C38.3385 22.5052 41.4021 24.7078 41.5311 24.8002C41.8202 25.0072 42.159 25.1106 42.4978 25.1106C42.8367 25.1106 43.1755 25.007 43.4645 24.8002C43.5934 24.7078 46.657 22.5052 49.7683 19.5566C54.2406 15.3177 56.4148 11.8634 56.4148 8.9963C56.4148 4.03592 52.4852 0.000244141 47.6551 0.000244141ZM42.4973 21.3887C38.042 18.0241 31.9011 12.265 31.9011 8.9963C31.9011 5.86657 34.3412 3.32056 37.3406 3.32056C38.8399 3.32056 40.2365 3.94411 41.2735 5.0765C41.5881 5.41982 42.0322 5.61539 42.4978 5.61539C42.9635 5.61539 43.4076 5.41982 43.7222 5.0765C44.7591 3.94428 46.1558 3.32056 47.6551 3.32056C50.6544 3.32056 53.0945 5.86657 53.0945 8.9963C53.0945 12.2603 46.9529 18.0219 42.4973 21.3887Z" fill="black"/>
</svg>
