<svg width="98" height="84" viewBox="0 0 98 84" fill="none" xmlns="http://www.w3.org/2000/svg">
<path d="M94.6318 68.5021H93.1766V47.1903C93.1766 45.8767 92.1079 44.8081 90.7943 44.8081H83.1429V33.6374C83.1429 32.324 82.0742 31.2553 80.7606 31.2553H78.0114C77.2185 31.2553 76.5759 31.8979 76.5759 32.6909C76.5759 33.4839 77.2185 34.1264 78.0114 34.1264H80.272V44.8083H80.1525C76.6439 44.8083 53.3311 44.8083 50.4357 44.8083V34.1264H61.2016V38.4765C61.2016 39.8145 62.2901 40.903 63.628 40.903H67.0797C68.4176 40.903 69.5061 39.8145 69.5061 38.4765V34.1264H72.2719C73.0649 34.1264 73.7075 33.4839 73.7075 32.6909C73.7075 31.8979 73.0649 31.2553 72.2719 31.2553C70.2239 31.2553 68.8394 31.2553 66.7893 31.2553V3.56346C66.7893 1.91774 65.4504 0.578857 63.8047 0.578857C59.4408 0.578857 38.5106 0.578857 34.1957 0.578857C32.5498 0.578857 31.2109 1.91774 31.2109 3.56346V8.75669C31.2109 9.54969 31.8534 10.1922 32.6464 10.1922C33.4394 10.1922 34.082 9.54969 34.082 8.75669V3.56346C34.082 3.50087 34.1331 3.44995 34.1957 3.44995H44.3484V8.98829C44.3484 10.5496 45.6186 11.8198 47.1799 11.8198H50.8205C52.3818 11.8198 53.6521 10.5496 53.6521 8.98829V3.44995H63.8049C63.8675 3.44995 63.9184 3.50087 63.9184 3.56346V31.2553C53.4942 31.2553 43.1353 31.2553 34.0822 31.2553V14.4966C34.0822 13.7036 33.4396 13.061 32.6466 13.061C31.8536 13.061 31.2111 13.7036 31.2111 14.4966V31.2553C29.5638 31.2553 19.7085 31.2553 17.2398 31.2553C15.9263 31.2553 14.8577 32.324 14.8577 33.6376V44.8081H7.20568C5.89225 44.8081 4.82363 45.8767 4.82363 47.1903V68.5021H3.36818C1.51096 68.5021 0 70.013 0 71.8702V76.6098C0 77.4028 0.642551 78.0454 1.43555 78.0454H4.27219V80.1428C4.27219 81.9506 5.74314 83.4216 7.55098 83.4216H22.3974C24.2052 83.4216 25.6762 81.9506 25.6762 80.1428V78.0454H38.2979V80.1428C38.2979 81.9506 39.7689 83.4216 41.5767 83.4216H46.1301C46.923 83.4216 47.5656 82.779 47.5656 81.986C47.5656 81.1931 46.923 80.5505 46.1301 80.5505H41.5767C41.3518 80.5505 41.169 80.3677 41.169 80.1428V78.0454H56.8308V80.1428C56.8308 80.3677 56.648 80.5505 56.4231 80.5505H51.8698C51.0768 80.5505 50.4342 81.1931 50.4342 81.986C50.4342 82.779 51.0768 83.4216 51.8698 83.4216H56.4231C58.231 83.4216 59.7019 81.9506 59.7019 80.1428V78.0454H72.3236V80.1428C72.3236 81.9506 73.7946 83.4216 75.6024 83.4216H90.4488C92.2567 83.4216 93.7276 81.9506 93.7276 80.1428V78.0454H96.5645C97.3575 78.0454 98 77.4028 98 76.6098V71.8702C98 70.013 96.489 68.5021 94.6318 68.5021ZM50.7808 8.94848H47.2195V3.44995H50.7808V8.94848ZM90.3055 68.5021H64.6827V47.6792H73.4003V53.5848C73.4003 54.8488 74.4285 55.8771 75.6926 55.8771H79.2958C80.5598 55.8771 81.5881 54.8488 81.5881 53.5848V47.6792H90.3057V68.5021H90.3055ZM78.7168 47.6792V53.0058H76.2714V47.6792H78.7168ZM61.8116 68.5021H36.1886V47.6792H44.9062V53.5848C44.9062 54.8488 45.9344 55.8771 47.1985 55.8771H50.8017C52.0658 55.8771 53.094 54.8488 53.094 53.5848V47.6792H61.8116V68.5021ZM50.2229 47.6792V53.0058H47.7775V47.6792H50.2229ZM66.6348 38.0317H64.0725V34.1264H66.6348V38.0317ZM31.3654 34.1263H33.9275V38.0315H31.3654V34.1263ZM17.7284 34.1263H28.4943V38.4763C28.4943 39.8143 29.5828 40.9028 30.9205 40.9028H34.3722C35.7101 40.9028 36.7986 39.8143 36.7986 38.4763V34.1263H47.5645V44.8081C36.9504 44.8081 26.7906 44.8081 17.7284 44.8081V34.1263ZM19.2834 47.6792H21.7288V53.0058H19.2834V47.6792ZM7.69472 47.6792H16.4123V53.5848C16.4123 54.8488 17.4406 55.8771 18.7046 55.8771H22.3076C23.5717 55.8771 24.6001 54.8488 24.6001 53.5848V47.6792H33.3177V68.5021H7.69472V47.6792ZM22.8053 80.1426C22.8053 80.3675 22.6225 80.5503 22.3976 80.5503H7.55098C7.32607 80.5503 7.14328 80.3675 7.14328 80.1426V78.0452H22.8051V80.1426H22.8053ZM90.8569 80.1426C90.8569 80.3675 90.6741 80.5503 90.4492 80.5503H75.6028C75.3779 80.5503 75.1951 80.3675 75.1951 80.1426V78.0452H90.8569V80.1426ZM95.1289 75.1741C64.461 75.1741 33.7853 75.1741 2.87109 75.1741V71.87C2.87109 71.5959 3.09408 71.373 3.36818 71.373H94.632C94.9061 71.373 95.1291 71.5959 95.1291 71.87V75.1741H95.1289Z" fill="black"/>
</svg>
