<svg width="104" height="78" viewBox="0 0 104 78" fill="none" xmlns="http://www.w3.org/2000/svg">
<path d="M15.8262 63.8695C14.5775 63.8695 13.5652 62.8572 13.5652 61.6086V16.3913C13.5652 15.1427 14.5775 14.1304 15.8262 14.1304C17.0748 14.1304 18.0871 15.1427 18.0871 16.3913V61.6086C18.0869 62.8572 17.0748 63.8695 15.8262 63.8695Z" fill="black"/>
<path d="M24.8695 54.826C23.6208 54.826 22.6085 53.8137 22.6085 52.5651V16.3913C22.6085 15.1427 23.6208 14.1304 24.8695 14.1304C26.1181 14.1304 27.1304 15.1427 27.1304 16.3913V52.5653C27.1304 53.8137 26.1181 54.826 24.8695 54.826Z" fill="black"/>
<path d="M33.913 54.826C32.6644 54.826 31.6521 53.8137 31.6521 52.5651V16.3913C31.6521 15.1427 32.6644 14.1304 33.913 14.1304C35.1617 14.1304 36.174 15.1427 36.174 16.3913V52.5653C36.174 53.8137 35.1617 54.826 33.913 54.826Z" fill="black"/>
<path d="M42.9566 54.826C41.7079 54.826 40.6956 53.8137 40.6956 52.5651V16.3913C40.6956 15.1427 41.7079 14.1304 42.9566 14.1304C44.2052 14.1304 45.2175 15.1427 45.2175 16.3913V52.5653C45.2173 53.8137 44.2052 54.826 42.9566 54.826Z" fill="black"/>
<path d="M51.9999 63.8695C50.7513 63.8695 49.739 62.8572 49.739 61.6086V16.3913C49.739 15.1427 50.7513 14.1304 51.9999 14.1304C53.2485 14.1304 54.2608 15.1427 54.2608 16.3913V61.6086C54.2608 62.8572 53.2485 63.8695 51.9999 63.8695Z" fill="black"/>
<path d="M61.0434 54.826C59.7948 54.826 58.7825 53.8137 58.7825 52.5651V16.3913C58.7825 15.1427 59.7948 14.1304 61.0434 14.1304C62.2921 14.1304 63.3044 15.1427 63.3044 16.3913V52.5653C63.3044 53.8137 62.2921 54.826 61.0434 54.826Z" fill="black"/>
<path d="M70.087 54.826C68.8384 54.826 67.826 53.8137 67.826 52.5651V16.3913C67.826 15.1427 68.8384 14.1304 70.087 14.1304C71.3356 14.1304 72.3479 15.1427 72.3479 16.3913V52.5653C72.3477 53.8137 71.3356 54.826 70.087 54.826Z" fill="black"/>
<path d="M79.1303 54.826C77.8817 54.826 76.8694 53.8137 76.8694 52.5651V16.3913C76.8694 15.1427 77.8817 14.1304 79.1303 14.1304C80.3789 14.1304 81.3913 15.1427 81.3913 16.3913V52.5653C81.3913 53.8137 80.3789 54.826 79.1303 54.826Z" fill="black"/>
<path d="M88.1739 63.8695C86.9252 63.8695 85.9129 62.8572 85.9129 61.6086V16.3913C85.9129 15.1427 86.9252 14.1304 88.1739 14.1304C89.4225 14.1304 90.4348 15.1427 90.4348 16.3913V61.6086C90.4348 62.8572 89.4225 63.8695 88.1739 63.8695Z" fill="black"/>
<path d="M24.8695 63.8696C24.5727 63.8787 24.2781 63.8169 24.0104 63.6888C23.7279 63.593 23.4776 63.4209 23.287 63.1914C22.4129 62.3565 22.3811 60.9711 23.216 60.0972C23.2391 60.0731 23.2628 60.0493 23.287 60.0262C23.4773 59.7967 23.7279 59.6243 24.0104 59.5287C24.5609 59.3026 25.1783 59.3026 25.7287 59.5287C26.0119 59.6233 26.2627 59.7956 26.4522 60.0262C27.3263 60.9177 27.3123 62.3493 26.4206 63.2234C26.0058 63.6299 25.4504 63.8614 24.8695 63.8696Z" fill="black"/>
<path d="M33.913 63.8697C32.6644 63.8546 31.6646 62.8303 31.6796 61.5816C31.6866 60.9992 31.9181 60.4419 32.3259 60.0261C32.9594 59.3726 33.9289 59.1751 34.7676 59.5286C35.0508 59.6231 35.3016 59.7955 35.491 60.0261C36.3651 60.9176 36.3512 62.3491 35.4597 63.2232C35.0459 63.6289 34.4923 63.8604 33.913 63.8697Z" fill="black"/>
<path d="M42.9566 63.8696C41.7079 63.8546 40.7081 62.8302 40.7232 61.5815C40.7302 60.9991 40.9616 60.4419 41.3694 60.026C41.5598 59.7964 41.8103 59.6241 42.0929 59.5285C42.9322 59.1828 43.8974 59.3793 44.5346 60.026C45.4087 60.9175 45.3947 62.349 44.503 63.2232C44.0882 63.6299 43.5329 63.8614 42.9519 63.8694H42.9566V63.8696Z" fill="black"/>
<path d="M61.0434 63.8696C60.7471 63.8743 60.4536 63.8126 60.1844 63.6888C59.9018 63.593 59.6515 63.4209 59.461 63.1913C58.5869 62.3565 58.5551 60.9711 59.39 60.0972C59.4131 60.073 59.4368 60.0493 59.461 60.0262C59.6513 59.7967 59.9018 59.6243 60.1844 59.5287C60.7348 59.3026 61.3523 59.3026 61.9027 59.5287C62.1859 59.6233 62.4366 59.7956 62.6261 60.0262C63.5002 60.9177 63.4862 62.3492 62.5945 63.2234C62.1797 63.6299 61.6242 63.8613 61.0434 63.8696Z" fill="black"/>
<path d="M70.087 63.8697C69.7907 63.8743 69.4971 63.8126 69.2279 63.6889C68.9454 63.593 68.6951 63.4209 68.5045 63.1914C67.6304 62.3565 67.5986 60.9711 68.4335 60.0972C68.4566 60.0731 68.4804 60.0493 68.5045 60.0262C69.3837 59.1644 70.7907 59.1644 71.6697 60.0262C72.5438 60.8539 72.5813 62.2333 71.7538 63.1072C71.7265 63.1361 71.6985 63.1641 71.6697 63.1914C71.48 63.4218 71.2292 63.5941 70.9463 63.6889C70.6771 63.8131 70.3833 63.8749 70.087 63.8697Z" fill="black"/>
<path d="M79.1303 63.8696C78.834 63.8743 78.5404 63.8126 78.2712 63.6888C77.9887 63.593 77.7384 63.4209 77.5478 63.1914C77.1082 62.7836 76.8617 62.2085 76.8696 61.6087C76.8583 61.3117 76.9204 61.0167 77.0504 60.7496C77.1438 60.4671 77.3145 60.2166 77.5432 60.0262C77.7335 59.7967 77.984 59.6244 78.2666 59.5288C79.1059 59.1831 80.0712 59.3796 80.7083 60.0262C80.9368 60.2176 81.1089 60.4677 81.2058 60.7496C81.3357 61.0169 81.3978 61.312 81.3866 61.6087C81.3533 62.8433 80.3603 63.8363 79.1256 63.8696H79.1303Z" fill="black"/>
<path d="M2.26094 18.6521C1.0123 18.6521 0 17.64 0 16.3913V2.82612C0 1.57749 1.0123 0.565186 2.26094 0.565186H15.8261C17.0748 0.565186 18.0871 1.57749 18.0871 2.82612C18.0871 4.07476 17.0748 5.08706 15.8261 5.08706H4.52167V16.3913C4.52167 17.64 3.50957 18.6521 2.26094 18.6521Z" fill="black"/>
<path d="M15.8261 77.4347H2.26094C1.0123 77.4347 0 76.4224 0 75.1738V61.6086C0 60.36 1.0123 59.3477 2.26094 59.3477C3.50957 59.3477 4.52167 60.36 4.52167 61.6086V72.9129H15.8259C17.0746 72.9129 18.0869 73.9252 18.0869 75.1738C18.0869 76.4224 17.0748 77.4347 15.8261 77.4347Z" fill="black"/>
<path d="M101.739 18.6521C100.49 18.6521 99.4781 17.6398 99.4781 16.3911V5.08685H88.1739C86.9252 5.08685 85.9129 4.07455 85.9129 2.82591C85.9129 1.57728 86.9252 0.565186 88.1739 0.565186H101.739C102.988 0.565186 104 1.57749 104 2.82612V16.3913C104 17.64 102.988 18.6521 101.739 18.6521Z" fill="black"/>
<path d="M101.739 77.4347H88.1739C86.9252 77.4347 85.9129 76.4224 85.9129 75.1738C85.9129 73.9252 86.9252 72.9129 88.1739 72.9129H99.4781V61.6086C99.4781 60.36 100.49 59.3477 101.739 59.3477C102.988 59.3477 104 60.36 104 61.6086V75.1738C104 76.4224 102.988 77.4347 101.739 77.4347Z" fill="black"/>
</svg>
